<svg version="1.1" viewBox="0.0 0.0 885.2178477690288 469.40682414698165" fill="none" stroke="none" stroke-linecap="square" stroke-miterlimit="10" xmlns:xlink="http://www.w3.org/1999/xlink" xmlns="http://www.w3.org/2000/svg"><clipPath id="p.0"><path d="m0 0l885.21783 0l0 469.40683l-885.21783 0l0 -469.40683z" clip-rule="nonzero"/></clipPath><g clip-path="url(#p.0)"><path fill="#000000" fill-opacity="0.0" d="m0 0l885.21783 0l0 469.40683l-885.21783 0z" fill-rule="evenodd"/><path fill="#893479" d="m-14.937008 -5.1706038l908.9449 0l0 480.91336l-908.9449 0z" fill-rule="evenodd"/><path fill="#000000" fill-opacity="0.0" d="m0 0l877.92126 0l0 250.48819l-877.92126 0z" fill-rule="evenodd"/><path fill="#ffffff" d="m51.375 46.11438q11.765625 0 20.78125 3.65625q9.03125 3.640625 15.6875 10.6875l-10.625 14.203125q-5.5 -5.75 -11.84375 -8.625q-6.328125 -2.890625 -14.390625 -2.890625q-4.734375 0 -7.6875 1.03125q-2.9375 1.015625 -4.21875 2.8125q-1.28125 1.78125 -1.28125 4.09375q0 2.6875 2.5 4.546875q2.5 1.84375 8.125 3.125l14.203125 3.203125q12.671875 2.953125 18.5625 8.578125q5.890625 5.625 5.890625 14.96875q0 8.96875 -4.609375 15.1875q-4.609375 6.203125 -12.671875 9.34375q-8.0625 3.125 -18.421875 3.125q-8.453125 0 -16.140625 -1.859375q-7.671875 -1.859375 -13.828125 -5.3125q-6.140625 -3.453125 -10.359375 -7.9375l10.625 -14.71875q3.203125 3.71875 7.875 6.59375q4.671875 2.875 10.234375 4.546875q5.578125 1.65625 11.328125 1.65625q4.484375 0 7.484375 -0.890625q3.015625 -0.890625 4.421875 -2.6875q1.40625 -1.796875 1.40625 -4.21875q0 -2.6875 -1.921875 -4.546875q-1.921875 -1.859375 -7.296875 -3.140625l-15.609375 -3.453125q-7.171875 -1.671875 -12.75 -4.421875q-5.5625 -2.75 -8.765625 -7.421875q-3.1875 -4.671875 -3.1875 -11.703125q0 -7.9375 4.34375 -14.140625q4.359375 -6.21875 12.546875 -9.796875q8.1875 -3.59375 19.59375 -3.59375zm118.26314 21.765625l-30.71875 32.765625l-4.09375 1.15625l-18.3125 20.484375l-0.125 -22.28125l29.0625 -32.125l24.1875 0zm-48.515625 -27.140625l0 91.140625l-21.75 0l0 -91.140625l21.75 0zm21.125 46.34375l28.796875 44.796875l-24.0625 0l-18.9375 -32.0l14.203125 -12.796875zm47.616013 -26.625q-6.65625 0 -9.671875 -2.5q-3.0 -2.5 -3.0 -7.875q0 -5.5 3.0 -7.984375q3.015625 -2.5 9.671875 -2.5q6.53125 0 9.59375 2.5q3.078125 2.484375 3.078125 7.984375q0 5.375 -3.078125 7.875q-3.0625 2.5 -9.59375 2.5zm10.875 7.421875l0 64.0l-21.75 0l0 -64.0l21.75 0zm36.998 -27.140625l0 69.375q0 4.234375 1.40625 6.03125q1.40625 1.78125 4.734375 1.78125q1.921875 0 3.203125 -0.25q1.28125 -0.265625 3.078125 -0.765625l-1.421875 13.046875q-2.296875 1.40625 -6.015625 2.296875q-3.703125 0.90625 -7.28125 0.90625q-10.25 0 -14.859375 -4.734375q-4.609375 -4.734375 -4.609375 -15.484375l0 -72.203125l21.765625 0zm41.856003 0l0 69.375q0 4.234375 1.40625 6.03125q1.40625 1.78125 4.734375 1.78125q1.921875 0 3.203125 -0.25q1.28125 -0.265625 3.078125 -0.765625l-1.421875 13.046875q-2.296875 1.40625 -6.015625 2.296875q-3.703125 0.90625 -7.28125 0.90625q-10.25 0 -14.859375 -4.734375q-4.609375 -4.734375 -4.609375 -15.484375l0 -72.203125l21.765625 0zm47.231018 92.421875q-9.59375 0 -17.859375 -3.125q-8.25 -3.140625 -13.625 -9.03125l10.234375 -12.03125q3.203125 4.09375 8.515625 6.84375q5.3125 2.75 11.84375 2.75q3.96875 0 6.515625 -1.140625q2.5625 -1.15625 2.5625 -3.59375q0 -1.796875 -1.28125 -2.875q-1.28125 -1.09375 -5.109375 -1.859375l-8.96875 -1.796875q-12.03125 -2.4375 -17.09375 -7.234375q-5.046875 -4.796875 -5.046875 -12.609375q0 -5.234375 3.203125 -10.03125q3.203125 -4.8125 9.859375 -7.8125q6.65625 -3.015625 17.015625 -3.015625q9.734375 0 17.15625 2.828125q7.421875 2.8125 11.78125 8.1875l-10.375 11.765625q-3.078125 -3.84375 -7.9375 -6.015625q-4.859375 -2.171875 -9.71875 -2.171875q-3.078125 0 -5.1875 0.578125q-2.109375 0.578125 -3.140625 1.609375q-1.015625 1.015625 -1.015625 2.546875q0 1.671875 1.59375 2.890625q1.59375 1.203125 5.953125 2.109375l11.640625 2.296875q9.859375 1.796875 14.203125 6.53125q4.359375 4.734375 4.359375 11.390625q0 6.265625 -3.328125 11.265625q-3.328125 4.984375 -9.984375 7.875q-6.65625 2.875 -16.765625 2.875zm106.74548 -94.203125q5.25 0 9.21875 1.09375q3.96875 1.078125 5.890625 2.484375l-2.171875 13.5625q-1.40625 -0.890625 -3.203125 -1.40625q-1.796875 -0.515625 -4.484375 -0.515625q-4.46875 0 -7.359375 2.0625q-2.875 2.046875 -2.875 7.15625l0 8.328125l1.28125 3.578125l0 56.578125l-21.765625 0l0 -69.890625q0 -6.140625 1.984375 -10.484375q1.984375 -4.359375 5.5625 -7.171875q3.59375 -2.828125 8.203125 -4.09375q4.609375 -1.28125 9.71875 -1.28125zm14.46875 28.921875l0 15.484375l-50.171875 0l0 -15.484375l50.171875 0zm38.523865 -1.28125q10.125 0 17.734375 3.90625q7.609375 3.90625 11.890625 11.390625q4.296875 7.484375 4.296875 17.984375q0 10.5 -4.296875 17.984375q-4.28125 7.484375 -11.890625 11.390625q-7.609375 3.90625 -17.734375 3.90625q-9.84375 0 -17.53125 -3.90625q-7.671875 -3.90625 -11.96875 -11.390625q-4.28125 -7.484375 -4.28125 -17.984375q0 -10.5 4.28125 -17.984375q4.296875 -7.484375 11.96875 -11.390625q7.6875 -3.90625 17.53125 -3.90625zm0 15.484375q-3.703125 0 -6.390625 1.796875q-2.6875 1.796875 -4.09375 5.765625q-1.40625 3.96875 -1.40625 10.234375q0 6.265625 1.40625 10.171875q1.40625 3.90625 4.09375 5.765625q2.6875 1.859375 6.390625 1.859375q3.84375 0 6.53125 -1.859375q2.6875 -1.859375 4.09375 -5.765625q1.40625 -3.90625 1.40625 -10.171875q0 -6.265625 -1.40625 -10.234375q-1.40625 -3.96875 -4.09375 -5.765625q-2.6875 -1.796875 -6.53125 -1.796875zm46.218872 49.796875l0 -64.0l19.203125 0l0.890625 13.828125q2.4375 -7.171875 7.234375 -11.140625q4.796875 -3.96875 12.21875 -3.96875q2.4375 0 4.15625 0.390625q1.734375 0.375 2.75 1.015625l-2.171875 17.921875q-1.28125 -0.515625 -3.265625 -0.828125q-1.984375 -0.328125 -4.796875 -0.328125q-3.84375 0 -7.171875 1.671875q-3.328125 1.65625 -5.3125 4.921875q-1.984375 3.265625 -1.984375 8.265625l0 32.25l-21.75 0zm113.2749 -17.03125l42.375 0l0 17.03125l-64.390625 0l0 -84.484375l22.015625 0l0 67.453125zm64.384155 -54.390625q-6.65625 0 -9.671875 -2.5q-3.0 -2.5 -3.0 -7.875q0 -5.5 3.0 -7.984375q3.015625 -2.5 9.671875 -2.5q6.53125 0 9.59375 2.5q3.078125 2.484375 3.078125 7.984375q0 5.375 -3.078125 7.875q-3.0625 2.5 -9.59375 2.5zm10.875 7.421875l0 64.0l-21.75 0l0 -64.0l21.75 0zm45.310486 -28.921875q5.25 0 9.21875 1.09375q3.96875 1.078125 5.890625 2.484375l-2.171875 13.5625q-1.40625 -0.890625 -3.203125 -1.40625q-1.796875 -0.515625 -4.484375 -0.515625q-4.46875 0 -7.359375 2.0625q-2.875 2.046875 -2.875 7.15625l0 8.328125l1.28125 3.578125l0 56.578125l-21.765625 0l0 -69.890625q0 -6.140625 1.984375 -10.484375q1.984375 -4.359375 5.5625 -7.171875q3.59375 -2.828125 8.203125 -4.09375q4.609375 -1.28125 9.71875 -1.28125zm14.46875 28.921875l0 15.484375l-50.171875 0l0 -15.484375l50.171875 0zm39.305115 65.28125q-10.625 0 -18.375 -3.96875q-7.75 -3.96875 -11.96875 -11.390625q-4.21875 -7.421875 -4.21875 -17.921875q0 -10.5 4.21875 -17.921875q4.21875 -7.421875 11.828125 -11.390625q7.625 -3.96875 17.484375 -3.96875q10.109375 0 17.21875 3.90625q7.109375 3.90625 10.8125 10.75q3.71875 6.84375 3.71875 15.6875q0 2.296875 -0.140625 4.609375q-0.125 2.296875 -0.375 3.828125l-50.6875 0l0 -11.640625l41.078125 0l-10.359375 3.96875q0 -7.6875 -2.75 -11.78125q-2.75 -4.09375 -8.515625 -4.09375q-4.09375 0 -6.984375 1.921875q-2.875 1.921875 -4.34375 6.015625q-1.46875 4.09375 -1.46875 10.5q0 6.265625 1.65625 10.171875q1.671875 3.90625 4.734375 5.640625q3.078125 1.71875 7.4375 1.71875q4.859375 0 7.734375 -1.921875q2.875 -1.921875 4.296875 -5.375l17.40625 5.765625q-1.796875 5.5 -6.21875 9.28125q-4.40625 3.765625 -10.484375 5.6875q-6.078125 1.921875 -12.734375 1.921875z" fill-rule="nonzero"/><path fill="#ffffff" d="m17.40625 227.23999l0 -16.71875q0 -1.140625 0.015625 -2.34375q0.03125 -1.21875 0.03125 -2.5q-1.453125 1.328125 -3.21875 2.3125q-1.765625 0.984375 -3.6875 1.34375l-0.703125 -6.25q1.140625 -0.09375 2.4375 -0.578125q1.296875 -0.484375 2.5625 -1.1875q1.28125 -0.703125 2.296875 -1.515625q1.015625 -0.8125 1.546875 -1.609375l6.015625 0l0 29.046875l-7.296875 0z" fill-rule="nonzero"/><path fill="#ffffff" d="m35.917084 211.03687q-2.203125 0 -4.09375 -0.71875q-1.890625 -0.71875 -3.125 -2.078125l2.34375 -2.75q0.734375 0.9375 1.953125 1.578125q1.21875 0.625 2.71875 0.625q0.90625 0 1.484375 -0.265625q0.59375 -0.265625 0.59375 -0.828125q0 -0.40625 -0.296875 -0.65625q-0.296875 -0.25 -1.171875 -0.421875l-2.046875 -0.40625q-2.765625 -0.5625 -3.921875 -1.65625q-1.15625 -1.109375 -1.15625 -2.890625q0 -1.203125 0.734375 -2.296875q0.734375 -1.109375 2.25 -1.796875q1.53125 -0.6875 3.90625 -0.6875q2.234375 0 3.921875 0.640625q1.703125 0.640625 2.703125 1.875l-2.375 2.703125q-0.703125 -0.875 -1.828125 -1.375q-1.109375 -0.5 -2.21875 -0.5q-0.703125 0 -1.1875 0.140625q-0.484375 0.125 -0.71875 0.359375q-0.234375 0.234375 -0.234375 0.578125q0 0.390625 0.359375 0.671875q0.375 0.265625 1.375 0.46875l2.671875 0.53125q2.25 0.40625 3.25 1.5q1.0 1.078125 1.0 2.609375q0 1.4375 -0.765625 2.578125q-0.765625 1.140625 -2.296875 1.8125q-1.515625 0.65625 -3.828125 0.65625zm15.600632 -19.625l0 14.109375q0 1.046875 0.5 1.515625q0.515625 0.453125 1.4375 0.453125q0.703125 0 1.203125 -0.15625q0.515625 -0.171875 0.9375 -0.5l0.515625 3.078125q-0.71875 0.53125 -1.84375 0.828125q-1.109375 0.296875 -2.28125 0.296875q-1.671875 0 -2.890625 -0.46875q-1.21875 -0.46875 -1.875 -1.5q-0.65625 -1.03125 -0.6875 -2.734375l0 -13.546875l4.984375 -1.375zm4.359375 4.671875l0 3.546875l-11.875 0l0 -3.546875l11.875 0z" fill-rule="nonzero"/><path fill="#ffffff" d="m94.36255 198.19312l-13.640625 16.328125l-0.484375 -1.140625l-6.90625 8.40625l-1.453125 -6.125l14.078125 -17.46875l8.40625 0zm-18.78125 0l0 29.046875l-7.5625 0l0 -29.046875l7.5625 0zm7.609375 9.59375l11.703125 19.453125l-8.578125 0l-8.796875 -15.21875l5.671875 -4.234375zm12.273193 19.453125l10.21875 -29.046875l9.0625 0l10.15625 29.046875l-7.78125 0l-5.6875 -18.65625l-1.265625 -4.578125l-0.09375 0l-1.1875 4.53125l-5.8125 18.703125l-7.609375 0zm6.640625 -6.5625l0 -5.140625l16.15625 0l0 5.140625l-16.15625 0zm50.38118 -22.484375l0 17.203125q0 6.171875 -3.28125 9.234375q-3.265625 3.046875 -9.6875 3.046875q-6.390625 0 -9.6875 -3.046875q-3.296875 -3.0625 -3.296875 -9.234375l0 -17.203125l7.609375 0l0 17.34375q0 3.125 1.34375 4.671875q1.34375 1.53125 4.03125 1.53125q2.71875 0 4.0625 -1.53125q1.34375 -1.546875 1.34375 -4.671875l0 -17.34375l7.5625 0zm17.20868 -0.4375q4.046875 0 7.140625 1.265625q3.109375 1.25 5.40625 3.671875l-3.65625 4.875q-1.890625 -1.96875 -4.078125 -2.953125q-2.171875 -1.0 -4.9375 -1.0q-1.640625 0 -2.65625 0.359375q-1.0 0.34375 -1.4375 0.96875q-0.4375 0.609375 -0.4375 1.390625q0 0.9375 0.84375 1.578125q0.859375 0.625 2.796875 1.0625l4.890625 1.109375q4.359375 1.015625 6.375 2.953125q2.03125 1.921875 2.03125 5.140625q0 3.078125 -1.59375 5.21875q-1.578125 2.125 -4.359375 3.203125q-2.765625 1.078125 -6.328125 1.078125q-2.90625 0 -5.546875 -0.640625q-2.640625 -0.640625 -4.75 -1.828125q-2.109375 -1.1875 -3.5625 -2.71875l3.65625 -5.0625q1.09375 1.28125 2.703125 2.265625q1.609375 0.984375 3.515625 1.5625q1.921875 0.578125 3.890625 0.578125q1.546875 0 2.578125 -0.3125q1.03125 -0.3125 1.515625 -0.921875q0.484375 -0.625 0.484375 -1.453125q0 -0.921875 -0.65625 -1.5625q-0.65625 -0.640625 -2.5 -1.078125l-5.375 -1.1875q-2.46875 -0.578125 -4.390625 -1.515625q-1.90625 -0.953125 -3.0 -2.546875q-1.09375 -1.609375 -1.09375 -4.03125q0 -2.734375 1.484375 -4.859375q1.5 -2.140625 4.3125 -3.375q2.8125 -1.234375 6.734375 -1.234375zm40.914444 0.4375l0 5.859375l-9.453125 0l0 23.1875l-7.5625 0l0 -23.1875l-9.515625 0l0 -5.859375l26.53125 0zm41.89604 20.734375q-0.84375 3.03125 -2.6875 5.0q-1.84375 1.953125 -4.40625 2.859375q-2.546875 0.890625 -5.625 0.890625q-4.390625 0 -7.609375 -1.78125q-3.21875 -1.78125 -4.9375 -5.125q-1.703125 -3.34375 -1.703125 -8.046875q0 -4.71875 1.703125 -8.0625q1.71875 -3.34375 4.9375 -5.125q3.21875 -1.78125 7.5625 -1.78125q3.046875 0 5.59375 0.859375q2.546875 0.859375 4.3125 2.625q1.765625 1.75 2.5 4.53125l-6.640625 2.6875q-0.609375 -2.734375 -2.0 -3.75q-1.390625 -1.015625 -3.5 -1.015625q-2.0625 0 -3.578125 1.015625q-1.515625 1.015625 -2.34375 3.015625q-0.8125 2.0 -0.8125 5.0q0 2.9375 0.75 4.96875q0.75 2.015625 2.265625 3.03125q1.515625 1.015625 3.765625 1.015625q2.109375 0 3.578125 -1.15625q1.484375 -1.171875 2.015625 -3.59375l6.859375 1.9375zm11.1358185 8.75q-2.25 0 -3.953125 -0.765625q-1.6875 -0.765625 -2.65625 -2.484375q-0.96875 -1.71875 -0.96875 -4.484375l0 -14.703125l7.484375 0l0 12.9375q0 2.109375 0.828125 2.953125q0.84375 0.828125 2.390625 0.828125q0.78125 0 1.484375 -0.28125q0.703125 -0.296875 1.234375 -0.890625q0.53125 -0.59375 0.8125 -1.53125q0.296875 -0.953125 0.296875 -2.21875l0 -11.796875l7.46875 0l0 22.0l-6.6875 0l-0.21875 -4.140625q-1.046875 2.34375 -2.953125 3.46875q-1.890625 1.109375 -4.5625 1.109375zm33.92343 0q-2.15625 0 -3.8125 -0.96875q-1.640625 -0.96875 -2.703125 -2.65625q-1.0625 -1.703125 -1.359375 -3.859375l0.703125 -0.921875l-0.40625 7.96875l-6.546875 0l0 -31.328125l7.46875 0l0 16.234375l-0.703125 -1.046875q0.625 -2.734375 2.515625 -4.515625q1.890625 -1.78125 5.109375 -1.78125q2.546875 0 4.546875 1.359375q2.0 1.359375 3.125 3.9375q1.125 2.578125 1.125 6.234375q0 3.5625 -1.15625 6.109375q-1.140625 2.546875 -3.171875 3.890625q-2.015625 1.34375 -4.734375 1.34375zm-2.59375 -5.5q1.921875 0 3.015625 -1.421875q1.109375 -1.4375 1.109375 -4.515625q0 -3.078125 -1.109375 -4.5q-1.09375 -1.4375 -3.015625 -1.4375q-1.28125 0 -2.1875 0.734375q-0.90625 0.71875 -1.390625 2.046875q-0.484375 1.3125 -0.484375 3.203125q0 1.890625 0.484375 3.21875q0.484375 1.3125 1.40625 2.0q0.9375 0.671875 2.171875 0.671875zm40.515686 -24.421875q4.046875 0 7.140625 1.265625q3.109375 1.25 5.40625 3.671875l-3.65625 4.875q-1.890625 -1.96875 -4.078125 -2.953125q-2.171875 -1.0 -4.9375 -1.0q-1.640625 0 -2.65625 0.359375q-1.0 0.34375 -1.4375 0.96875q-0.4375 0.609375 -0.4375 1.390625q0 0.9375 0.84375 1.578125q0.859375 0.625 2.796875 1.0625l4.890625 1.109375q4.359375 1.015625 6.375 2.953125q2.03125 1.921875 2.03125 5.140625q0 3.078125 -1.59375 5.21875q-1.578125 2.125 -4.359375 3.203125q-2.765625 1.078125 -6.328125 1.078125q-2.90625 0 -5.546875 -0.640625q-2.640625 -0.640625 -4.75 -1.828125q-2.109375 -1.1875 -3.5625 -2.71875l3.65625 -5.0625q1.09375 1.28125 2.703125 2.265625q1.609375 0.984375 3.515625 1.5625q1.921875 0.578125 3.890625 0.578125q1.546875 0 2.578125 -0.3125q1.03125 -0.3125 1.515625 -0.921875q0.484375 -0.625 0.484375 -1.453125q0 -0.921875 -0.65625 -1.5625q-0.65625 -0.640625 -2.5 -1.078125l-5.375 -1.1875q-2.46875 -0.578125 -4.390625 -1.515625q-1.90625 -0.953125 -3.0 -2.546875q-1.09375 -1.609375 -1.09375 -4.03125q0 -2.734375 1.484375 -4.859375q1.5 -2.140625 4.3125 -3.375q2.8125 -1.234375 6.734375 -1.234375zm26.926819 7.046875q3.34375 0 5.5625 0.953125q2.234375 0.9375 3.484375 2.5q1.25 1.5625 1.5625 3.359375l-6.90625 2.296875q-0.3125 -1.890625 -1.125 -2.828125q-0.8125 -0.953125 -2.359375 -0.953125q-1.40625 0 -2.359375 0.640625q-0.9375 0.625 -1.421875 2.015625q-0.484375 1.390625 -0.484375 3.546875q0 2.15625 0.53125 3.5q0.53125 1.328125 1.5 1.921875q0.96875 0.59375 2.28125 0.59375q1.09375 0 1.8125 -0.40625q0.734375 -0.421875 1.21875 -1.203125q0.484375 -0.796875 0.625 -1.953125l6.734375 2.15625q-0.3125 1.9375 -1.65625 3.46875q-1.34375 1.515625 -3.546875 2.390625q-2.1875 0.875 -5.140625 0.875q-3.609375 0 -6.296875 -1.34375q-2.6875 -1.34375 -4.140625 -3.90625q-1.4375 -2.578125 -1.4375 -6.1875q0 -3.609375 1.4375 -6.171875q1.453125 -2.578125 4.078125 -3.921875q2.625 -1.34375 6.046875 -1.34375zm24.994812 0q3.46875 0 6.09375 1.34375q2.625 1.34375 4.09375 3.921875q1.46875 2.5625 1.46875 6.171875q0 3.609375 -1.46875 6.1875q-1.46875 2.5625 -4.09375 3.90625q-2.625 1.34375 -6.09375 1.34375q-3.390625 0 -6.03125 -1.34375q-2.640625 -1.34375 -4.109375 -3.90625q-1.46875 -2.578125 -1.46875 -6.1875q0 -3.609375 1.46875 -6.171875q1.46875 -2.578125 4.109375 -3.921875q2.640625 -1.34375 6.03125 -1.34375zm0 5.328125q-1.28125 0 -2.203125 0.609375q-0.921875 0.609375 -1.40625 1.984375q-0.484375 1.359375 -0.484375 3.515625q0 2.15625 0.484375 3.5q0.484375 1.34375 1.40625 1.984375q0.921875 0.625 2.203125 0.625q1.3125 0 2.234375 -0.625q0.9375 -0.640625 1.421875 -1.984375q0.484375 -1.34375 0.484375 -3.5q0 -2.15625 -0.484375 -3.515625q-0.484375 -1.375 -1.421875 -1.984375q-0.921875 -0.609375 -2.234375 -0.609375zm23.324707 17.546875q-2.25 0 -3.953125 -0.765625q-1.6875 -0.765625 -2.65625 -2.484375q-0.96875 -1.71875 -0.96875 -4.484375l0 -14.703125l7.484375 0l0 12.9375q0 2.109375 0.828125 2.953125q0.84375 0.828125 2.390625 0.828125q0.78125 0 1.484375 -0.28125q0.703125 -0.296875 1.234375 -0.890625q0.53125 -0.59375 0.8125 -1.53125q0.296875 -0.953125 0.296875 -2.21875l0 -11.796875l7.46875 0l0 22.0l-6.6875 0l-0.21875 -4.140625q-1.046875 2.34375 -2.953125 3.46875q-1.890625 1.109375 -4.5625 1.109375zm28.985962 -29.4375l0 21.171875q0 1.578125 0.765625 2.265625q0.78125 0.671875 2.140625 0.671875q1.0625 0 1.828125 -0.234375q0.765625 -0.25 1.390625 -0.734375l0.78125 4.625q-1.09375 0.796875 -2.765625 1.234375q-1.671875 0.4375 -3.4375 0.4375q-2.5 0 -4.328125 -0.703125q-1.828125 -0.703125 -2.828125 -2.234375q-0.984375 -1.546875 -1.015625 -4.09375l0 -20.328125l7.46875 -2.078125zm6.5625 7.0l0 5.328125l-17.828125 0l0 -5.328125l17.828125 0zm28.5932 22.4375q-3.859375 0 -6.875 -1.703125q-3.015625 -1.71875 -4.6875 -5.0625q-1.671875 -3.359375 -1.671875 -8.140625q0 -4.71875 1.75 -8.0625q1.765625 -3.34375 5.046875 -5.140625q3.28125 -1.8125 7.71875 -1.8125q4.921875 0 7.953125 1.78125q3.046875 1.78125 4.71875 5.65625l-7.0 2.78125q-0.5625 -2.25 -2.015625 -3.265625q-1.453125 -1.015625 -3.609375 -1.015625q-2.15625 0 -3.703125 1.046875q-1.53125 1.03125 -2.328125 3.03125q-0.796875 2.0 -0.796875 4.953125q0 3.078125 0.8125 5.15625q0.828125 2.0625 2.421875 3.046875q1.609375 0.984375 3.984375 0.984375q1.28125 0 2.328125 -0.296875q1.0625 -0.3125 1.84375 -0.90625q0.796875 -0.59375 1.234375 -1.5q0.453125 -0.90625 0.453125 -2.125l0 -0.453125l-6.65625 0l0 -5.046875l13.078125 0l0 15.65625l-5.15625 0l-0.5625 -6.8125l1.234375 1.046875q-0.9375 3.0 -3.328125 4.609375q-2.390625 1.59375 -6.1875 1.59375zm19.2807 -0.4375l0 -22.0l6.59375 0l0.3125 4.75q0.828125 -2.46875 2.484375 -3.828125q1.65625 -1.359375 4.203125 -1.359375q0.828125 0 1.421875 0.140625q0.59375 0.125 0.953125 0.34375l-0.75 6.15625q-0.4375 -0.171875 -1.125 -0.28125q-0.671875 -0.109375 -1.640625 -0.109375q-1.328125 0 -2.46875 0.578125q-1.140625 0.5625 -1.828125 1.6875q-0.6875 1.125 -0.6875 2.828125l0 11.09375l-7.46875 0zm29.124695 -22.4375q3.46875 0 6.09375 1.34375q2.625 1.34375 4.09375 3.921875q1.46875 2.5625 1.46875 6.171875q0 3.609375 -1.46875 6.1875q-1.46875 2.5625 -4.09375 3.90625q-2.625 1.34375 -6.09375 1.34375q-3.390625 0 -6.03125 -1.34375q-2.640625 -1.34375 -4.109375 -3.90625q-1.46875 -2.578125 -1.46875 -6.1875q0 -3.609375 1.46875 -6.171875q1.46875 -2.578125 4.109375 -3.921875q2.640625 -1.34375 6.03125 -1.34375zm0 5.328125q-1.28125 0 -2.203125 0.609375q-0.921875 0.609375 -1.40625 1.984375q-0.484375 1.359375 -0.484375 3.515625q0 2.15625 0.484375 3.5q0.484375 1.34375 1.40625 1.984375q0.921875 0.625 2.203125 0.625q1.3125 0 2.234375 -0.625q0.9375 -0.640625 1.421875 -1.984375q0.484375 -1.34375 0.484375 -3.5q0 -2.15625 -0.484375 -3.515625q-0.484375 -1.375 -1.421875 -1.984375q-0.921875 -0.609375 -2.234375 -0.609375zm23.324707 17.546875q-2.25 0 -3.953125 -0.765625q-1.6875 -0.765625 -2.65625 -2.484375q-0.96875 -1.71875 -0.96875 -4.484375l0 -14.703125l7.484375 0l0 12.9375q0 2.109375 0.828125 2.953125q0.84375 0.828125 2.390625 0.828125q0.78125 0 1.484375 -0.28125q0.703125 -0.296875 1.234375 -0.890625q0.53125 -0.59375 0.8125 -1.53125q0.296875 -0.953125 0.296875 -2.21875l0 -11.796875l7.46875 0l0 22.0l-6.6875 0l-0.21875 -4.140625q-1.046875 2.34375 -2.953125 3.46875q-1.890625 1.109375 -4.5625 1.109375zm19.798462 8.796875l0 -31.234375l6.734375 0l0.390625 7.96875l-0.875 -0.921875q0.296875 -2.203125 1.359375 -3.875q1.0625 -1.671875 2.734375 -2.640625q1.671875 -0.96875 3.828125 -0.96875q2.71875 0 4.734375 1.34375q2.03125 1.34375 3.15625 3.875q1.125 2.515625 1.125 6.125q0 3.609375 -1.15625 6.21875q-1.140625 2.59375 -3.1875 3.953125q-2.046875 1.359375 -4.765625 1.359375q-3.0 0 -4.84375 -1.78125q-1.84375 -1.78125 -2.46875 -4.515625l0.703125 -1.046875l0 16.140625l-7.46875 0zm11.53125 -14.296875q1.921875 0 3.015625 -1.421875q1.109375 -1.4375 1.109375 -4.515625q0 -3.078125 -1.078125 -4.5q-1.078125 -1.4375 -3.015625 -1.4375q-1.21875 0 -2.15625 0.6875q-0.921875 0.671875 -1.4375 2.0q-0.5 1.3125 -0.5 3.25q0 1.84375 0.46875 3.1875q0.46875 1.34375 1.390625 2.046875q0.921875 0.703125 2.203125 0.703125z" fill-rule="nonzero"/></g></svg>